<?xml version="1.0" encoding="UTF-8"?>
<svg xmlns="http://www.w3.org/2000/svg" viewBox="0 0 118.656 51.071">
  <path d="M118.656.024l-59.656-.024-.005.009c-.12-.001-.237-.009-.358-.009-5.753,0-10.839,1.275-15.258,3.823-4.42,2.55-7.857,6.103-10.312,10.663-.671,1.246-1.242,2.549-1.729,3.898h-9.594L24.984.024h-15.984L0,51h15.984l3.528-19.872h9.896c.119,3.705.969,7.023,2.572,9.946,1.73,3.157,4.185,5.601,7.366,7.331,3.18,1.731,6.875,2.596,11.084,2.596,5.798,0,10.932-1.285,15.398-3.858,4.465-2.571,7.927-6.173,10.382-10.803s3.683-9.891,3.683-15.784v-7.858h6.636l-6.775,38.376h15.984l3.528-19.872,2.232-12.744,1.016-5.759h13.909L118.656.024ZM51.771,12.285c.846-.161,1.707-.242,2.562-.242,3.343,0,6.541,1.212,9.04,3.421l-11.602,6.694v-9.873ZM44.669,16.046c1.488-1.488,3.318-2.621,5.309-3.291v13.402s-8.553-4.942-8.553-4.942c.673-1.933,1.792-3.716,3.244-5.168ZM40.667,25.709c0-.906.091-1.815.27-2.706l9.818,5.673.002-.003,1.785,1.032-8.55,4.938c-2.145-2.481-3.325-5.647-3.325-8.934ZM56.895,39.133c-.846.161-1.707.242-2.562.242-3.338,0-6.534-1.21-9.034-3.416l11.596-6.698v9.871ZM63.997,35.373c-1.488,1.488-3.318,2.621-5.309,3.291v-10.568l.003-.122v-2.708l8.552,4.937c-.675,1.935-1.794,3.719-3.246,5.171ZM67.73,28.414l-9.15-5.282-.107-.064-2.344-1.353,8.55-4.936c2.143,2.479,3.321,5.643,3.321,8.93,0,.904-.091,1.812-.27,2.705Z" fill="#ececec" stroke-width="0"/>
</svg>